<svg xmlns="http://www.w3.org/2000/svg" viewBox="0 0 963.94 176.76"><defs><style>.cls-1{fill:#949999;}.cls-2{fill:#e62f2f;}</style></defs><title>Asset 1</title><g id="Layer_2" data-name="Layer 2"><g id="Layer_1-2" data-name="Layer 1"><path class="cls-1" d="M87.32,174.42q-1.45-7.94-2-11.91a68.2,68.2,0,0,1-.5-8.55v-1.79a52.6,52.6,0,0,1-19.4,17.72Q53,176.76,36.11,176.76T9.67,167.65Q0,158.54,0,143.78q0-16.32,14.87-26.61t39.91-10.29H84.86V89.22q0-15.09-9.67-23.54T48,57.24a69.45,69.45,0,0,0-21.52,3.24A52.55,52.55,0,0,0,9.39,69.43L9.28,88.77h-6l.11-23A76,76,0,0,1,23.65,55.29,73.22,73.22,0,0,1,48,51.21q19.45,0,31.19,9.84T90.9,89.44V150q0,4.7.39,9.28a81,81,0,0,0,1.29,9.06h14.53v6Zm-51.21-3.58q17.11,0,29.74-7.71a48.5,48.5,0,0,0,19-21.35V113H55.12q-22.25,0-35.67,8.67T6,144.23a24.78,24.78,0,0,0,8.27,19Q22.58,170.84,36.11,170.84Z"/><path class="cls-1" d="M196.51,114.83,155.92,101l2-6,40.47,14.87.11-44.05h6.26L204,109.91l39.36-16,2.24,5.93-40.25,15.32,27.84,35.44-5.25,3.69-27.06-36-25.49,36.34-5-3.58Z"/><path class="cls-1" d="M336.11,114.83,295.53,101l2-6L338,109.8l.11-44.05h6.26l-.78,44.16,39.36-16,2.24,5.93-40.25,15.32,27.84,35.44-5.25,3.69-27.06-36L315,154.63l-5-3.58Z"/><path class="cls-1" d="M571.82,6V0h24.26V106.55h14.2l48.08-46.4-.22-.67H644.83v-6h35.89v6H667.08l-50,49.08,54.67,59.82h13.08v6H649.08v-6h14.09l.22-.56-50.76-55.23H596.08v55.79h18.22v6H571.82v-6H590V6Z"/><path class="cls-1" d="M775.26,114.83,734.68,101l2-6,40.47,14.87.11-44.05h6.26l-.78,44.16,39.36-16,2.24,5.93-40.25,15.32,27.84,35.44-5.25,3.69-27.06-36-25.49,36.34-5-3.58Z"/><path class="cls-2" d="M914.86,114.83,874.28,101l2-6,40.47,14.87.11-44.05h6.26l-.78,44.16,39.36-16,2.24,5.93-40.25,15.32,27.84,35.44-5.25,3.69-27.06-36-25.49,36.34-5-3.58Z"/></g></g></svg>